<svg width="80" height="16" viewBox="0 0 80 16" fill="none" xmlns="http://www.w3.org/2000/svg">
<path d="M7.99992 1.33337L10.0599 5.50671L14.6666 6.18004L11.3333 9.42671L12.1199 14.0134L7.99992 11.8467L3.87992 14.0134L4.66659 9.42671L1.33325 6.18004L5.93992 5.50671L7.99992 1.33337Z" fill="#D7FFF1"/>
<path fill-rule="evenodd" clip-rule="evenodd" d="M7.99993 0.833374C8.19024 0.833374 8.36405 0.94141 8.44829 1.11206L10.3921 5.04994L14.7389 5.6853C14.9272 5.71282 15.0835 5.84482 15.1422 6.02582C15.2009 6.20683 15.1518 6.40546 15.0155 6.53822L11.8705 9.60139L12.6127 13.9289C12.6449 14.1164 12.5678 14.306 12.4138 14.4179C12.2598 14.5298 12.0557 14.5445 11.8872 14.4559L7.99993 12.4116L4.11266 14.4559C3.9442 14.5445 3.74006 14.5298 3.58607 14.4179C3.43208 14.306 3.35495 14.1164 3.38713 13.9289L4.12934 9.60139L0.9844 6.53822C0.848091 6.40546 0.798955 6.20683 0.857643 6.02582C0.916332 5.84482 1.07267 5.71282 1.26095 5.6853L5.6078 5.04994L7.55158 1.11206C7.63582 0.94141 7.80962 0.833374 7.99993 0.833374ZM7.99993 2.463L6.38829 5.72802C6.31552 5.87544 6.17492 5.97767 6.01225 6.00145L2.40747 6.52834L5.01547 9.06853C5.1334 9.1834 5.18723 9.34896 5.1594 9.51123L4.54402 13.0992L7.76721 11.4042C7.9129 11.3276 8.08697 11.3276 8.23266 11.4042L11.4558 13.0992L10.8405 9.51123C10.8126 9.34896 10.8665 9.1834 10.9844 9.06853L13.5924 6.52834L9.98762 6.00145C9.82494 5.97767 9.68435 5.87544 9.61158 5.72802L7.99993 2.463Z" fill="#D7FFF1"/>
<path d="M23.9999 1.33337L26.0599 5.50671L30.6666 6.18004L27.3333 9.42671L28.1199 14.0134L23.9999 11.8467L19.8799 14.0134L20.6666 9.42671L17.3333 6.18004L21.9399 5.50671L23.9999 1.33337Z" fill="#D7FFF1"/>
<path fill-rule="evenodd" clip-rule="evenodd" d="M23.9999 0.833374C24.1902 0.833374 24.3641 0.94141 24.4483 1.11206L26.3921 5.04994L30.7389 5.6853C30.9272 5.71282 31.0835 5.84482 31.1422 6.02582C31.2009 6.20683 31.1518 6.40546 31.0155 6.53822L27.8705 9.60139L28.6127 13.9289C28.6449 14.1164 28.5678 14.306 28.4138 14.4179C28.2598 14.5298 28.0557 14.5445 27.8872 14.4559L23.9999 12.4116L20.1127 14.4559C19.9442 14.5445 19.7401 14.5298 19.5861 14.4179C19.4321 14.306 19.355 14.1164 19.3871 13.9289L20.1293 9.60139L16.9844 6.53822C16.8481 6.40546 16.799 6.20683 16.8576 6.02582C16.9163 5.84482 17.0727 5.71282 17.261 5.6853L21.6078 5.04994L23.5516 1.11206C23.6358 0.94141 23.8096 0.833374 23.9999 0.833374ZM23.9999 2.463L22.3883 5.72802C22.3155 5.87544 22.1749 5.97767 22.0122 6.00145L18.4075 6.52834L21.0155 9.06853C21.1334 9.1834 21.1872 9.34896 21.1594 9.51123L20.544 13.0992L23.7672 11.4042C23.9129 11.3276 24.087 11.3276 24.2327 11.4042L27.4558 13.0992L26.8405 9.51123C26.8126 9.34896 26.8665 9.1834 26.9844 9.06853L29.5924 6.52834L25.9876 6.00145C25.8249 5.97767 25.6843 5.87544 25.6116 5.72802L23.9999 2.463Z" fill="#D7FFF1"/>
<path d="M39.9999 1.33337L42.0599 5.50671L46.6666 6.18004L43.3333 9.42671L44.1199 14.0134L39.9999 11.8467L35.8799 14.0134L36.6666 9.42671L33.3333 6.18004L37.9399 5.50671L39.9999 1.33337Z" fill="#D7FFF1" stroke="#D7FFF1" stroke-linecap="round" stroke-linejoin="round"/>
<path d="M55.9999 1.33337L58.0599 5.50671L62.6666 6.18004L59.3333 9.42671L60.1199 14.0134L55.9999 11.8467L51.8799 14.0134L52.6666 9.42671L49.3333 6.18004L53.9399 5.50671L55.9999 1.33337Z" fill="#D7FFF1" stroke="#D7FFF1" stroke-linecap="round" stroke-linejoin="round"/>
<path fill-rule="evenodd" clip-rule="evenodd" d="M71.9999 0.833374C72.1902 0.833374 72.3641 0.94141 72.4483 1.11206L74.3921 5.04994L78.7389 5.6853C78.9272 5.71282 79.0835 5.84482 79.1422 6.02582C79.2009 6.20683 79.1518 6.40546 79.0155 6.53822L75.8705 9.60139L76.6127 13.9289C76.6449 14.1164 76.5678 14.306 76.4138 14.4179C76.2598 14.5298 76.0557 14.5445 75.8872 14.4559L71.9999 12.4116L68.1127 14.4559C67.9442 14.5445 67.7401 14.5298 67.5861 14.4179C67.4321 14.306 67.355 14.1164 67.3871 13.9289L68.1293 9.60139L64.9844 6.53822C64.8481 6.40546 64.799 6.20683 64.8576 6.02582C64.9163 5.84482 65.0727 5.71282 65.261 5.6853L69.6078 5.04994L71.5516 1.11206C71.6358 0.94141 71.8096 0.833374 71.9999 0.833374ZM71.9999 2.463L70.3883 5.72802C70.3155 5.87544 70.1749 5.97767 70.0122 6.00145L66.4075 6.52834L69.0155 9.06853C69.1334 9.1834 69.1872 9.34896 69.1594 9.51123L68.544 13.0992L71.7672 11.4042C71.9129 11.3276 72.087 11.3276 72.2327 11.4042L75.4558 13.0992L74.8405 9.51123C74.8126 9.34896 74.8665 9.1834 74.9844 9.06853L77.5924 6.52834L73.9876 6.00145C73.8249 5.97767 73.6843 5.87544 73.6116 5.72802L71.9999 2.463Z" fill="#D7FFF1"/>
</svg>
